<?xml version="1.0" encoding="UTF-8" standalone="no"?>
<!-- Created with Inkscape (http://www.inkscape.org/) -->

<svg
   width="210mm"
   height="297mm"
   viewBox="0 0 210 297"
   version="1.1"
   id="svg5"
   sodipodi:docname="fig_ongecollimeerd.svg"
   inkscape:version="1.1.2 (b8e25be833, 2022-02-05)"
   xmlns:inkscape="http://www.inkscape.org/namespaces/inkscape"
   xmlns:sodipodi="http://sodipodi.sourceforge.net/DTD/sodipodi-0.dtd"
   xmlns:xlink="http://www.w3.org/1999/xlink"
   xmlns="http://www.w3.org/2000/svg"
   xmlns:svg="http://www.w3.org/2000/svg">
  <sodipodi:namedview
     id="namedview7"
     pagecolor="#ffffff"
     bordercolor="#666666"
     borderopacity="1.0"
     inkscape:pageshadow="2"
     inkscape:pageopacity="0.0"
     inkscape:pagecheckerboard="0"
     inkscape:document-units="mm"
     showgrid="true"
     inkscape:zoom="2.5620932"
     inkscape:cx="285.89905"
     inkscape:cy="615.51236"
     inkscape:window-width="1920"
     inkscape:window-height="1057"
     inkscape:window-x="-8"
     inkscape:window-y="-8"
     inkscape:window-maximized="1"
     inkscape:current-layer="layer1">
    <inkscape:grid
       type="xygrid"
       id="grid824" />
  </sodipodi:namedview>
  <defs
     id="defs2">
    <inkscape:path-effect
       effect="spiro"
       id="path-effect10429"
       is_visible="true"
       lpeversion="1" />
    <inkscape:path-effect
       effect="spiro"
       id="path-effect10425"
       is_visible="true"
       lpeversion="1" />
    <inkscape:path-effect
       effect="spiro"
       id="path-effect10421"
       is_visible="true"
       lpeversion="1" />
    <inkscape:path-effect
       effect="spiro"
       id="path-effect10304"
       is_visible="true"
       lpeversion="1" />
    <inkscape:path-effect
       effect="spiro"
       id="path-effect10300"
       is_visible="true"
       lpeversion="1" />
    <inkscape:path-effect
       effect="spiro"
       id="path-effect10183"
       is_visible="true"
       lpeversion="1" />
    <inkscape:path-effect
       effect="spiro"
       id="path-effect4810"
       is_visible="true"
       lpeversion="1" />
    <inkscape:path-effect
       effect="spiro"
       id="path-effect3077"
       is_visible="true"
       lpeversion="1" />
    <inkscape:path-effect
       effect="spiro"
       id="path-effect1476"
       is_visible="true"
       lpeversion="1" />
    <inkscape:path-effect
       effect="spiro"
       id="path-effect1472"
       is_visible="true"
       lpeversion="1" />
    <inkscape:path-effect
       effect="spiro"
       id="path-effect1242"
       is_visible="true"
       lpeversion="1" />
    <inkscape:path-effect
       effect="spiro"
       id="path-effect1238"
       is_visible="true"
       lpeversion="1" />
    <g
       id="g4952">
      <symbol
         overflow="visible"
         id="symbol8534">
        <path
           style="stroke:none;"
           d=""
           id="path1060" />
      </symbol>
      <symbol
         overflow="visible"
         id="symbol217">
        <path
           style="stroke:none;"
           d="M 3.65625 -3.984375 L 4.515625 -3.984375 C 4.71875 -3.984375 4.8125 -3.984375 4.8125 -4.1875 C 4.8125 -4.296875 4.71875 -4.296875 4.546875 -4.296875 L 3.71875 -4.296875 L 3.921875 -5.4375 C 3.96875 -5.640625 4.109375 -6.34375 4.171875 -6.46875 C 4.25 -6.65625 4.421875 -6.8125 4.640625 -6.8125 C 4.671875 -6.8125 4.9375 -6.8125 5.125 -6.625 C 4.6875 -6.59375 4.578125 -6.234375 4.578125 -6.09375 C 4.578125 -5.859375 4.765625 -5.734375 4.953125 -5.734375 C 5.21875 -5.734375 5.5 -5.96875 5.5 -6.34375 C 5.5 -6.796875 5.046875 -7.03125 4.640625 -7.03125 C 4.296875 -7.03125 3.671875 -6.84375 3.375 -5.859375 C 3.3125 -5.65625 3.28125 -5.546875 3.046875 -4.296875 L 2.359375 -4.296875 C 2.15625 -4.296875 2.046875 -4.296875 2.046875 -4.109375 C 2.046875 -3.984375 2.140625 -3.984375 2.328125 -3.984375 L 2.984375 -3.984375 L 2.25 -0.046875 C 2.0625 0.921875 1.890625 1.828125 1.375 1.828125 C 1.328125 1.828125 1.09375 1.828125 0.890625 1.640625 C 1.359375 1.609375 1.453125 1.25 1.453125 1.109375 C 1.453125 0.875 1.265625 0.75 1.078125 0.75 C 0.8125 0.75 0.53125 0.984375 0.53125 1.359375 C 0.53125 1.796875 0.96875 2.046875 1.375 2.046875 C 1.921875 2.046875 2.328125 1.453125 2.5 1.078125 C 2.828125 0.453125 3.046875 -0.75 3.0625 -0.828125 Z M 3.65625 -3.984375 "
           id="path850" />
      </symbol>
      <symbol
         overflow="visible"
         id="symbol3016">
        <path
           style="stroke:none;"
           d=""
           id="path4288" />
      </symbol>
      <symbol
         overflow="visible"
         id="symbol6161">
        <path
           style="stroke:none;"
           d="M 6.84375 -3.265625 C 7 -3.265625 7.1875 -3.265625 7.1875 -3.453125 C 7.1875 -3.65625 7 -3.65625 6.859375 -3.65625 L 0.890625 -3.65625 C 0.75 -3.65625 0.5625 -3.65625 0.5625 -3.453125 C 0.5625 -3.265625 0.75 -3.265625 0.890625 -3.265625 Z M 6.859375 -1.328125 C 7 -1.328125 7.1875 -1.328125 7.1875 -1.53125 C 7.1875 -1.71875 7 -1.71875 6.84375 -1.71875 L 0.890625 -1.71875 C 0.75 -1.71875 0.5625 -1.71875 0.5625 -1.53125 C 0.5625 -1.328125 0.75 -1.328125 0.890625 -1.328125 Z M 6.859375 -1.328125 "
           id="path4599" />
      </symbol>
      <symbol
         overflow="visible"
         id="symbol6460">
        <path
           style="stroke:none;"
           d="M 4.46875 -2 C 4.46875 -3.1875 3.65625 -4.1875 2.578125 -4.1875 C 2.109375 -4.1875 1.671875 -4.03125 1.3125 -3.671875 L 1.3125 -5.625 C 1.515625 -5.5625 1.84375 -5.5 2.15625 -5.5 C 3.390625 -5.5 4.09375 -6.40625 4.09375 -6.53125 C 4.09375 -6.59375 4.0625 -6.640625 3.984375 -6.640625 C 3.984375 -6.640625 3.953125 -6.640625 3.90625 -6.609375 C 3.703125 -6.515625 3.21875 -6.3125 2.546875 -6.3125 C 2.15625 -6.3125 1.6875 -6.390625 1.21875 -6.59375 C 1.140625 -6.625 1.125 -6.625 1.109375 -6.625 C 1 -6.625 1 -6.546875 1 -6.390625 L 1 -3.4375 C 1 -3.265625 1 -3.1875 1.140625 -3.1875 C 1.21875 -3.1875 1.234375 -3.203125 1.28125 -3.265625 C 1.390625 -3.421875 1.75 -3.96875 2.5625 -3.96875 C 3.078125 -3.96875 3.328125 -3.515625 3.40625 -3.328125 C 3.5625 -2.953125 3.59375 -2.578125 3.59375 -2.078125 C 3.59375 -1.71875 3.59375 -1.125 3.34375 -0.703125 C 3.109375 -0.3125 2.734375 -0.0625 2.28125 -0.0625 C 1.5625 -0.0625 0.984375 -0.59375 0.8125 -1.171875 C 0.84375 -1.171875 0.875 -1.15625 0.984375 -1.15625 C 1.3125 -1.15625 1.484375 -1.40625 1.484375 -1.640625 C 1.484375 -1.890625 1.3125 -2.140625 0.984375 -2.140625 C 0.84375 -2.140625 0.5 -2.0625 0.5 -1.609375 C 0.5 -0.75 1.1875 0.21875 2.296875 0.21875 C 3.453125 0.21875 4.46875 -0.734375 4.46875 -2 Z M 4.46875 -2 "
           id="path3743" />
      </symbol>
      <symbol
         overflow="visible"
         id="symbol7410">
        <path
           style="stroke:none;"
           d="M 4.578125 -3.1875 C 4.578125 -3.984375 4.53125 -4.78125 4.1875 -5.515625 C 3.734375 -6.484375 2.90625 -6.640625 2.5 -6.640625 C 1.890625 -6.640625 1.171875 -6.375 0.75 -5.453125 C 0.4375 -4.765625 0.390625 -3.984375 0.390625 -3.1875 C 0.390625 -2.4375 0.421875 -1.546875 0.84375 -0.78125 C 1.265625 0.015625 2 0.21875 2.484375 0.21875 C 3.015625 0.21875 3.78125 0.015625 4.21875 -0.9375 C 4.53125 -1.625 4.578125 -2.40625 4.578125 -3.1875 Z M 2.484375 0 C 2.09375 0 1.5 -0.25 1.328125 -1.203125 C 1.21875 -1.796875 1.21875 -2.71875 1.21875 -3.3125 C 1.21875 -3.953125 1.21875 -4.609375 1.296875 -5.140625 C 1.484375 -6.328125 2.234375 -6.421875 2.484375 -6.421875 C 2.8125 -6.421875 3.46875 -6.234375 3.65625 -5.25 C 3.765625 -4.6875 3.765625 -3.9375 3.765625 -3.3125 C 3.765625 -2.5625 3.765625 -1.890625 3.65625 -1.25 C 3.5 -0.296875 2.9375 0 2.484375 0 Z M 2.484375 0 "
           id="path279" />
      </symbol>
      <symbol
         overflow="visible"
         id="symbol9412">
        <path
           style="stroke:none;"
           d="M 1.09375 -3.421875 L 1.09375 -0.75 C 1.09375 -0.3125 0.984375 -0.3125 0.3125 -0.3125 L 0.3125 0 C 0.671875 -0.015625 1.171875 -0.03125 1.453125 -0.03125 C 1.703125 -0.03125 2.21875 -0.015625 2.5625 0 L 2.5625 -0.3125 C 1.890625 -0.3125 1.78125 -0.3125 1.78125 -0.75 L 1.78125 -2.59375 C 1.78125 -3.625 2.5 -4.1875 3.125 -4.1875 C 3.765625 -4.1875 3.875 -3.65625 3.875 -3.078125 L 3.875 -0.75 C 3.875 -0.3125 3.765625 -0.3125 3.09375 -0.3125 L 3.09375 0 C 3.4375 -0.015625 3.953125 -0.03125 4.21875 -0.03125 C 4.46875 -0.03125 5 -0.015625 5.328125 0 L 5.328125 -0.3125 C 4.671875 -0.3125 4.5625 -0.3125 4.5625 -0.75 L 4.5625 -2.59375 C 4.5625 -3.625 5.265625 -4.1875 5.90625 -4.1875 C 6.53125 -4.1875 6.640625 -3.65625 6.640625 -3.078125 L 6.640625 -0.75 C 6.640625 -0.3125 6.53125 -0.3125 5.859375 -0.3125 L 5.859375 0 C 6.203125 -0.015625 6.71875 -0.03125 6.984375 -0.03125 C 7.25 -0.03125 7.765625 -0.015625 8.109375 0 L 8.109375 -0.3125 C 7.59375 -0.3125 7.34375 -0.3125 7.328125 -0.609375 L 7.328125 -2.515625 C 7.328125 -3.375 7.328125 -3.671875 7.015625 -4.03125 C 6.875 -4.203125 6.546875 -4.40625 5.96875 -4.40625 C 5.140625 -4.40625 4.6875 -3.8125 4.53125 -3.421875 C 4.390625 -4.296875 3.65625 -4.40625 3.203125 -4.40625 C 2.46875 -4.40625 2 -3.984375 1.71875 -3.359375 L 1.71875 -4.40625 L 0.3125 -4.296875 L 0.3125 -3.984375 C 1.015625 -3.984375 1.09375 -3.921875 1.09375 -3.421875 Z M 1.09375 -3.421875 "
           id="path8486" />
      </symbol>
    </g>
    <g
       id="g7212">
      <symbol
         overflow="visible"
         id="symbol732">
        <path
           style="stroke:none;"
           d=""
           id="path8011" />
      </symbol>
      <symbol
         overflow="visible"
         id="symbol8348">
        <path
           style="stroke:none;"
           d="M 3.890625 -3.734375 C 3.625 -3.71875 3.421875 -3.5 3.421875 -3.28125 C 3.421875 -3.140625 3.515625 -2.984375 3.734375 -2.984375 C 3.953125 -2.984375 4.1875 -3.15625 4.1875 -3.546875 C 4.1875 -4 3.765625 -4.40625 3 -4.40625 C 1.6875 -4.40625 1.3125 -3.390625 1.3125 -2.953125 C 1.3125 -2.171875 2.046875 -2.03125 2.34375 -1.96875 C 2.859375 -1.859375 3.375 -1.75 3.375 -1.203125 C 3.375 -0.953125 3.15625 -0.109375 1.953125 -0.109375 C 1.8125 -0.109375 1.046875 -0.109375 0.8125 -0.640625 C 1.203125 -0.59375 1.453125 -0.890625 1.453125 -1.171875 C 1.453125 -1.390625 1.28125 -1.515625 1.078125 -1.515625 C 0.8125 -1.515625 0.515625 -1.3125 0.515625 -0.859375 C 0.515625 -0.296875 1.09375 0.109375 1.9375 0.109375 C 3.5625 0.109375 3.953125 -1.09375 3.953125 -1.546875 C 3.953125 -1.90625 3.765625 -2.15625 3.640625 -2.265625 C 3.375 -2.546875 3.078125 -2.609375 2.640625 -2.6875 C 2.28125 -2.765625 1.890625 -2.84375 1.890625 -3.296875 C 1.890625 -3.578125 2.125 -4.1875 3 -4.1875 C 3.25 -4.1875 3.75 -4.109375 3.890625 -3.734375 Z M 3.890625 -3.734375 "
           id="path9729" />
      </symbol>
      <symbol
         overflow="visible"
         id="symbol8541">
        <path
           style="stroke:none;"
           d=""
           id="path7426" />
      </symbol>
      <symbol
         overflow="visible"
         id="symbol551">
        <path
           style="stroke:none;"
           d="M 6.84375 -3.265625 C 7 -3.265625 7.1875 -3.265625 7.1875 -3.453125 C 7.1875 -3.65625 7 -3.65625 6.859375 -3.65625 L 0.890625 -3.65625 C 0.75 -3.65625 0.5625 -3.65625 0.5625 -3.453125 C 0.5625 -3.265625 0.75 -3.265625 0.890625 -3.265625 Z M 6.859375 -1.328125 C 7 -1.328125 7.1875 -1.328125 7.1875 -1.53125 C 7.1875 -1.71875 7 -1.71875 6.84375 -1.71875 L 0.890625 -1.71875 C 0.75 -1.71875 0.5625 -1.71875 0.5625 -1.53125 C 0.5625 -1.328125 0.75 -1.328125 0.890625 -1.328125 Z M 6.859375 -1.328125 "
           id="path1717" />
      </symbol>
      <symbol
         overflow="visible"
         id="symbol904">
        <path
           style="stroke:none;"
           d="M 2.9375 -6.375 C 2.9375 -6.625 2.9375 -6.640625 2.703125 -6.640625 C 2.078125 -6 1.203125 -6 0.890625 -6 L 0.890625 -5.6875 C 1.09375 -5.6875 1.671875 -5.6875 2.1875 -5.953125 L 2.1875 -0.78125 C 2.1875 -0.421875 2.15625 -0.3125 1.265625 -0.3125 L 0.953125 -0.3125 L 0.953125 0 C 1.296875 -0.03125 2.15625 -0.03125 2.5625 -0.03125 C 2.953125 -0.03125 3.828125 -0.03125 4.171875 0 L 4.171875 -0.3125 L 3.859375 -0.3125 C 2.953125 -0.3125 2.9375 -0.421875 2.9375 -0.78125 Z M 2.9375 -6.375 "
           id="path6529" />
      </symbol>
      <symbol
         overflow="visible"
         id="symbol4804">
        <path
           style="stroke:none;"
           d="M 2.890625 -3.515625 C 3.703125 -3.78125 4.28125 -4.46875 4.28125 -5.265625 C 4.28125 -6.078125 3.40625 -6.640625 2.453125 -6.640625 C 1.453125 -6.640625 0.6875 -6.046875 0.6875 -5.28125 C 0.6875 -4.953125 0.90625 -4.765625 1.203125 -4.765625 C 1.5 -4.765625 1.703125 -4.984375 1.703125 -5.28125 C 1.703125 -5.765625 1.234375 -5.765625 1.09375 -5.765625 C 1.390625 -6.265625 2.046875 -6.390625 2.40625 -6.390625 C 2.828125 -6.390625 3.375 -6.171875 3.375 -5.28125 C 3.375 -5.15625 3.34375 -4.578125 3.09375 -4.140625 C 2.796875 -3.65625 2.453125 -3.625 2.203125 -3.625 C 2.125 -3.609375 1.890625 -3.59375 1.8125 -3.59375 C 1.734375 -3.578125 1.671875 -3.5625 1.671875 -3.46875 C 1.671875 -3.359375 1.734375 -3.359375 1.90625 -3.359375 L 2.34375 -3.359375 C 3.15625 -3.359375 3.53125 -2.6875 3.53125 -1.703125 C 3.53125 -0.34375 2.84375 -0.0625 2.40625 -0.0625 C 1.96875 -0.0625 1.21875 -0.234375 0.875 -0.8125 C 1.21875 -0.765625 1.53125 -0.984375 1.53125 -1.359375 C 1.53125 -1.71875 1.265625 -1.921875 0.984375 -1.921875 C 0.734375 -1.921875 0.421875 -1.78125 0.421875 -1.34375 C 0.421875 -0.4375 1.34375 0.21875 2.4375 0.21875 C 3.65625 0.21875 4.5625 -0.6875 4.5625 -1.703125 C 4.5625 -2.515625 3.921875 -3.296875 2.890625 -3.515625 Z M 2.890625 -3.515625 "
           id="path480" />
      </symbol>
      <symbol
         overflow="visible"
         id="symbol2057">
        <path
           style="stroke:none;"
           d="M 4.578125 -3.1875 C 4.578125 -3.984375 4.53125 -4.78125 4.1875 -5.515625 C 3.734375 -6.484375 2.90625 -6.640625 2.5 -6.640625 C 1.890625 -6.640625 1.171875 -6.375 0.75 -5.453125 C 0.4375 -4.765625 0.390625 -3.984375 0.390625 -3.1875 C 0.390625 -2.4375 0.421875 -1.546875 0.84375 -0.78125 C 1.265625 0.015625 2 0.21875 2.484375 0.21875 C 3.015625 0.21875 3.78125 0.015625 4.21875 -0.9375 C 4.53125 -1.625 4.578125 -2.40625 4.578125 -3.1875 Z M 2.484375 0 C 2.09375 0 1.5 -0.25 1.328125 -1.203125 C 1.21875 -1.796875 1.21875 -2.71875 1.21875 -3.3125 C 1.21875 -3.953125 1.21875 -4.609375 1.296875 -5.140625 C 1.484375 -6.328125 2.234375 -6.421875 2.484375 -6.421875 C 2.8125 -6.421875 3.46875 -6.234375 3.65625 -5.25 C 3.765625 -4.6875 3.765625 -3.9375 3.765625 -3.3125 C 3.765625 -2.5625 3.765625 -1.890625 3.65625 -1.25 C 3.5 -0.296875 2.9375 0 2.484375 0 Z M 2.484375 0 "
           id="path7273" />
      </symbol>
      <symbol
         overflow="visible"
         id="symbol3232">
        <path
           style="stroke:none;"
           d="M 1.09375 -3.421875 L 1.09375 -0.75 C 1.09375 -0.3125 0.984375 -0.3125 0.3125 -0.3125 L 0.3125 0 C 0.671875 -0.015625 1.171875 -0.03125 1.453125 -0.03125 C 1.703125 -0.03125 2.21875 -0.015625 2.5625 0 L 2.5625 -0.3125 C 1.890625 -0.3125 1.78125 -0.3125 1.78125 -0.75 L 1.78125 -2.59375 C 1.78125 -3.625 2.5 -4.1875 3.125 -4.1875 C 3.765625 -4.1875 3.875 -3.65625 3.875 -3.078125 L 3.875 -0.75 C 3.875 -0.3125 3.765625 -0.3125 3.09375 -0.3125 L 3.09375 0 C 3.4375 -0.015625 3.953125 -0.03125 4.21875 -0.03125 C 4.46875 -0.03125 5 -0.015625 5.328125 0 L 5.328125 -0.3125 C 4.671875 -0.3125 4.5625 -0.3125 4.5625 -0.75 L 4.5625 -2.59375 C 4.5625 -3.625 5.265625 -4.1875 5.90625 -4.1875 C 6.53125 -4.1875 6.640625 -3.65625 6.640625 -3.078125 L 6.640625 -0.75 C 6.640625 -0.3125 6.53125 -0.3125 5.859375 -0.3125 L 5.859375 0 C 6.203125 -0.015625 6.71875 -0.03125 6.984375 -0.03125 C 7.25 -0.03125 7.765625 -0.015625 8.109375 0 L 8.109375 -0.3125 C 7.59375 -0.3125 7.34375 -0.3125 7.328125 -0.609375 L 7.328125 -2.515625 C 7.328125 -3.375 7.328125 -3.671875 7.015625 -4.03125 C 6.875 -4.203125 6.546875 -4.40625 5.96875 -4.40625 C 5.140625 -4.40625 4.6875 -3.8125 4.53125 -3.421875 C 4.390625 -4.296875 3.65625 -4.40625 3.203125 -4.40625 C 2.46875 -4.40625 2 -3.984375 1.71875 -3.359375 L 1.71875 -4.40625 L 0.3125 -4.296875 L 0.3125 -3.984375 C 1.015625 -3.984375 1.09375 -3.921875 1.09375 -3.421875 Z M 1.09375 -3.421875 "
           id="path3126" />
      </symbol>
    </g>
  </defs>
  <g
     inkscape:label="Layer 1"
     inkscape:groupmode="layer"
     id="layer1">
    <path
       style="fill:none;stroke:#000000;stroke-width:0.264583px;stroke-linecap:butt;stroke-linejoin:miter;stroke-opacity:1"
       d="M 48.947917,141.55208 H 113.77083"
       id="path976"
       inkscape:export-filename="D:\School\Libraries\Opstelling_Huidtherapie\data\Figuren\stralengang_nietgecollimeerd.png"
       inkscape:export-xdpi="400"
       inkscape:export-ydpi="400" />
    <path
       style="fill:none;stroke:#000000;stroke-width:0.244805px;stroke-linecap:butt;stroke-linejoin:miter;stroke-opacity:1"
       d="m 92.604167,133.63416 v 15.85542"
       id="path1097"
       inkscape:export-filename="D:\School\Libraries\Opstelling_Huidtherapie\data\Figuren\stralengang_nietgecollimeerd.png"
       inkscape:export-xdpi="400"
       inkscape:export-ydpi="400" />
    <path
       style="fill:none;stroke:#000000;stroke-width:0.264583px;stroke-linecap:butt;stroke-linejoin:miter;stroke-opacity:1"
       d="m 92.604167,133.61459 -38.364583,7.93749 38.364584,7.93751"
       id="path1099"
       inkscape:export-filename="D:\School\Libraries\Opstelling_Huidtherapie\data\Figuren\stralengang_nietgecollimeerd.png"
       inkscape:export-xdpi="400"
       inkscape:export-ydpi="400" />
    <path
       style="fill:none;stroke:#000000;stroke-width:0.264583px;stroke-linecap:butt;stroke-linejoin:miter;stroke-opacity:1"
       d="m 92.604167,149.48958 14.552083,-7.9375"
       id="path1101"
       inkscape:export-filename="D:\School\Libraries\Opstelling_Huidtherapie\data\Figuren\stralengang_nietgecollimeerd.png"
       inkscape:export-xdpi="400"
       inkscape:export-ydpi="400" />
    <path
       style="fill:none;stroke:#000000;stroke-width:0.264583px;stroke-linecap:butt;stroke-linejoin:miter;stroke-opacity:1"
       d="m 92.604167,133.61459 14.552083,7.93749"
       id="path1103"
       inkscape:export-filename="D:\School\Libraries\Opstelling_Huidtherapie\data\Figuren\stralengang_nietgecollimeerd.png"
       inkscape:export-xdpi="400"
       inkscape:export-ydpi="400" />
    <path
       style="fill:none;stroke:#000000;stroke-width:0.264583px;stroke-linecap:butt;stroke-linejoin:miter;stroke-opacity:1"
       d="m 54.239583,121.70833 v -7.9375"
       id="path1220"
       inkscape:export-filename="D:\School\Libraries\Opstelling_Huidtherapie\data\Figuren\stralengang_nietgecollimeerd.png"
       inkscape:export-xdpi="400"
       inkscape:export-ydpi="400" />
    <path
       style="fill:none;stroke:#000000;stroke-width:0.264583px;stroke-linecap:butt;stroke-linejoin:miter;stroke-opacity:1"
       d="m 52.916666,112.44792 v 1.32291"
       id="path1222"
       inkscape:export-filename="D:\School\Libraries\Opstelling_Huidtherapie\data\Figuren\stralengang_nietgecollimeerd.png"
       inkscape:export-xdpi="400"
       inkscape:export-ydpi="400" />
    <path
       style="fill:none;stroke:#000000;stroke-width:0.264583px;stroke-linecap:butt;stroke-linejoin:miter;stroke-opacity:1"
       d="m 52.916666,113.77083 h 2.645833"
       id="path1224"
       inkscape:export-filename="D:\School\Libraries\Opstelling_Huidtherapie\data\Figuren\stralengang_nietgecollimeerd.png"
       inkscape:export-xdpi="400"
       inkscape:export-ydpi="400" />
    <path
       style="fill:none;stroke:#000000;stroke-width:0.264583px;stroke-linecap:butt;stroke-linejoin:miter;stroke-opacity:1"
       d="m 55.562499,111.125 v 2.64583"
       id="path1226"
       inkscape:export-filename="D:\School\Libraries\Opstelling_Huidtherapie\data\Figuren\stralengang_nietgecollimeerd.png"
       inkscape:export-xdpi="400"
       inkscape:export-ydpi="400" />
    <path
       style="fill:none;stroke:#000000;stroke-width:0.264583px;stroke-linecap:butt;stroke-linejoin:miter;stroke-opacity:1"
       d="M 55.562499,111.125 H 52.916666"
       id="path1228"
       inkscape:export-filename="D:\School\Libraries\Opstelling_Huidtherapie\data\Figuren\stralengang_nietgecollimeerd.png"
       inkscape:export-xdpi="400"
       inkscape:export-ydpi="400" />
    <path
       style="fill:none;stroke:#000000;stroke-width:0.264583px;stroke-linecap:butt;stroke-linejoin:miter;stroke-opacity:1"
       d="M 52.916666,112.44792 V 111.125"
       id="path1230"
       inkscape:export-filename="D:\School\Libraries\Opstelling_Huidtherapie\data\Figuren\stralengang_nietgecollimeerd.png"
       inkscape:export-xdpi="400"
       inkscape:export-ydpi="400" />
    <path
       style="fill:none;stroke:#000000;stroke-width:0.24153px;stroke-linecap:butt;stroke-linejoin:miter;stroke-opacity:1"
       d="m 92.604167,121.70833 v -6.61458"
       id="path1232"
       inkscape:export-filename="D:\School\Libraries\Opstelling_Huidtherapie\data\Figuren\stralengang_nietgecollimeerd.png"
       inkscape:export-xdpi="400"
       inkscape:export-ydpi="400" />
    <path
       style="fill:none;stroke:#000000;stroke-width:0.264583px;stroke-linecap:butt;stroke-linejoin:miter;stroke-opacity:1"
       d="m 92.604166,115.09375 c -0.817822,-0.61337 -1.322915,-1.62355 -1.322917,-2.64583 -2e-6,-1.02228 0.505093,-2.03247 1.322917,-2.64584"
       id="path1470"
       inkscape:path-effect="#path-effect1472"
       inkscape:original-d="m 92.604166,115.09375 c -0.440709,-0.88168 -0.881679,-1.76363 -1.322917,-2.64583 -0.441238,-0.88221 0.882208,-1.76363 1.322917,-2.64584"
       inkscape:export-filename="D:\School\Libraries\Opstelling_Huidtherapie\data\Figuren\stralengang_nietgecollimeerd.png"
       inkscape:export-xdpi="400"
       inkscape:export-ydpi="400" />
    <path
       style="fill:none;stroke:#000000;stroke-width:0.264583px;stroke-linecap:butt;stroke-linejoin:miter;stroke-opacity:1"
       d="m 92.604166,115.09375 c 0.817821,-0.61337 1.322914,-1.62355 1.322916,-2.64583 2e-6,-1.02228 -0.505092,-2.03247 -1.322916,-2.64584"
       id="path1474"
       inkscape:path-effect="#path-effect1476"
       inkscape:original-d="m 92.604166,115.09375 c 0.441237,-0.88168 0.882208,-1.76363 1.322916,-2.64583 0.440709,-0.88221 -0.881679,-1.76363 -1.322916,-2.64584"
       inkscape:export-filename="D:\School\Libraries\Opstelling_Huidtherapie\data\Figuren\stralengang_nietgecollimeerd.png"
       inkscape:export-xdpi="400"
       inkscape:export-ydpi="400" />
    <path
       style="fill:none;stroke:#000000;stroke-width:0.264583px;stroke-linecap:butt;stroke-linejoin:miter;stroke-opacity:1"
       d="m 107.15625,121.70833 v -7.9375"
       id="path1706"
       inkscape:export-filename="D:\School\Libraries\Opstelling_Huidtherapie\data\Figuren\stralengang_nietgecollimeerd.png"
       inkscape:export-xdpi="400"
       inkscape:export-ydpi="400" />
    <path
       style="fill:none;stroke:#000000;stroke-width:0.176388px;stroke-linecap:butt;stroke-linejoin:miter;stroke-opacity:1"
       d="m 107.68542,113.77083 h -1.05834"
       id="path1708"
       inkscape:export-filename="D:\School\Libraries\Opstelling_Huidtherapie\data\Figuren\stralengang_nietgecollimeerd.png"
       inkscape:export-xdpi="400"
       inkscape:export-ydpi="400" />
    <path
       style="fill:none;stroke:#000000;stroke-width:0.176388px;stroke-linecap:butt;stroke-linejoin:miter;stroke-opacity:1"
       d="m 106.62708,112.7125 v 1.05833"
       id="path1708-1"
       inkscape:export-filename="D:\School\Libraries\Opstelling_Huidtherapie\data\Figuren\stralengang_nietgecollimeerd.png"
       inkscape:export-xdpi="400"
       inkscape:export-ydpi="400" />
    <path
       style="fill:none;stroke:#000000;stroke-width:0.176388px;stroke-linecap:butt;stroke-linejoin:miter;stroke-opacity:1"
       d="m 107.68542,112.7125 v 1.05833"
       id="path1708-6"
       inkscape:export-filename="D:\School\Libraries\Opstelling_Huidtherapie\data\Figuren\stralengang_nietgecollimeerd.png"
       inkscape:export-xdpi="400"
       inkscape:export-ydpi="400" />
    <path
       style="fill:none;stroke:#000000;stroke-width:0.176388px;stroke-linecap:butt;stroke-linejoin:miter;stroke-opacity:1"
       d="m 106.62708,112.7125 h 1.05834"
       id="path1708-1-6"
       inkscape:export-filename="D:\School\Libraries\Opstelling_Huidtherapie\data\Figuren\stralengang_nietgecollimeerd.png"
       inkscape:export-xdpi="400"
       inkscape:export-ydpi="400" />
    <path
       style="fill:none;stroke:#000000;stroke-width:0.264583px;stroke-linecap:butt;stroke-linejoin:miter;stroke-opacity:1"
       d="m 92.604166,115.09375 -38.364583,-2.64583 38.364584,-2.64584"
       id="path1954"
       inkscape:export-filename="D:\School\Libraries\Opstelling_Huidtherapie\data\Figuren\stralengang_nietgecollimeerd.png"
       inkscape:export-xdpi="400"
       inkscape:export-ydpi="400" />
    <path
       style="fill:none;stroke:#000000;stroke-width:0.264583px;stroke-linecap:butt;stroke-linejoin:miter;stroke-opacity:1"
       d="m 92.604166,109.80208 14.552084,3.43959"
       id="path1956"
       inkscape:export-filename="D:\School\Libraries\Opstelling_Huidtherapie\data\Figuren\stralengang_nietgecollimeerd.png"
       inkscape:export-xdpi="400"
       inkscape:export-ydpi="400" />
    <path
       style="fill:none;stroke:#000000;stroke-width:0.264583px;stroke-linecap:butt;stroke-linejoin:miter;stroke-opacity:1"
       d="m 92.604166,115.09375 14.552084,-1.85208"
       id="path1958"
       inkscape:export-filename="D:\School\Libraries\Opstelling_Huidtherapie\data\Figuren\stralengang_nietgecollimeerd.png"
       inkscape:export-xdpi="400"
       inkscape:export-ydpi="400" />
    <path
       style="fill:none;stroke:#000000;stroke-width:0.264583px;stroke-linecap:butt;stroke-linejoin:miter;stroke-opacity:1"
       d="m 91.28125,133.61459 h 2.38125 0.264583"
       id="path2073"
       inkscape:export-filename="D:\School\Libraries\Opstelling_Huidtherapie\data\Figuren\stralengang_nietgecollimeerd.png"
       inkscape:export-xdpi="400"
       inkscape:export-ydpi="400" />
    <path
       style="fill:none;stroke:#000000;stroke-width:0.264583px;stroke-linecap:butt;stroke-linejoin:miter;stroke-opacity:1"
       d="m 92.604167,130.96875 v 2.64584"
       id="path2188"
       inkscape:export-filename="D:\School\Libraries\Opstelling_Huidtherapie\data\Figuren\stralengang_nietgecollimeerd.png"
       inkscape:export-xdpi="400"
       inkscape:export-ydpi="400" />
    <path
       style="fill:none;stroke:#000000;stroke-width:0.264583px;stroke-linecap:butt;stroke-linejoin:miter;stroke-opacity:1"
       d="m 92.604168,149.48958 v 2.64584"
       id="path2188-5"
       inkscape:export-filename="D:\School\Libraries\Opstelling_Huidtherapie\data\Figuren\stralengang_nietgecollimeerd.png"
       inkscape:export-xdpi="400"
       inkscape:export-ydpi="400" />
    <path
       style="fill:none;stroke:#000000;stroke-width:0.264583px;stroke-linecap:butt;stroke-linejoin:miter;stroke-opacity:1"
       d="m 93.927083,149.48958 c -0.264583,0 -2.645833,0 -2.645833,0"
       id="path2190"
       inkscape:export-filename="D:\School\Libraries\Opstelling_Huidtherapie\data\Figuren\stralengang_nietgecollimeerd.png"
       inkscape:export-xdpi="400"
       inkscape:export-ydpi="400" />
    <path
       style="fill:none;stroke:#ff0000;stroke-width:0.264583px;stroke-linecap:butt;stroke-linejoin:miter;stroke-opacity:1"
       d="m 54.239584,141.55208 38.364583,-9.26041"
       id="path2409"
       inkscape:export-filename="D:\School\Libraries\Opstelling_Huidtherapie\data\Figuren\stralengang_nietgecollimeerd.png"
       inkscape:export-xdpi="400"
       inkscape:export-ydpi="400" />
    <path
       style="fill:none;stroke:#ff0000;stroke-width:0.264583px;stroke-linecap:butt;stroke-linejoin:miter;stroke-opacity:1"
       d="m 54.239584,141.55208 38.364583,9.26042"
       id="path2524"
       inkscape:export-filename="D:\School\Libraries\Opstelling_Huidtherapie\data\Figuren\stralengang_nietgecollimeerd.png"
       inkscape:export-xdpi="400"
       inkscape:export-ydpi="400" />
    <path
       style="fill:none;fill-opacity:0.625352;stroke:#000000;stroke-width:0.264999;stroke-opacity:1"
       d="m 60.890656,134.83846 c 2e-4,0.065 5e-4,0.13 8e-4,0.195 4e-4,0.065 8e-4,0.13 0.001,0.195 5e-4,0.064 10e-4,0.129 0.002,0.194 8e-4,0.065 0.002,0.13 0.003,0.195 0.001,0.065 0.003,0.13 0.005,0.194 0.002,0.065 0.004,0.13 0.007,0.195 0.003,0.065 0.006,0.13 0.0102,0.195 0.004,0.064 0.009,0.129 0.0147,0.194 0.006,0.065 0.0126,0.13 0.0207,0.195 0.008,0.065 0.0177,0.13 0.0289,0.194 0.0113,0.065 0.0243,0.13 0.0395,0.195 0.0153,0.065 0.0328,0.13 0.0531,0.195 0.0203,0.064 0.0434,0.129 0.07,0.194 0.0265,0.065 0.0565,0.13 0.0906,0.195 0.034,0.065 0.0722,0.13 0.1151,0.194 0.0429,0.065 0.0906,0.13 0.1436,0.195 0.053,0.065 0.1113,0.13 0.1755,0.195 0.0643,0.064 0.1343,0.129 0.2106,0.194 0.0762,0.065 0.1587,0.13 0.2473,0.195 0.0887,0.065 0.1837,0.13 0.2846,0.194 0.101,0.065 0.208,0.13 0.3204,0.195 0.1124,0.065 0.2302,0.13 0.3525,0.195 0.1222,0.064 0.2489,0.129 0.3786,0.194 0.1296,0.065 0.2623,0.13 0.3961,0.195 0.1339,0.065 0.269,0.13 0.4031,0.194 0.1341,0.065 0.2673,0.13 0.3972,0.195 0.13,0.065 0.2566,0.13 0.3776,0.195 0.1209,0.064 0.2361,0.129 0.3433,0.194 0.1071,0.065 0.2061,0.13 0.295,0.195 0.0888,0.065 0.1673,0.13 0.2338,0.194 0.0666,0.065 0.1211,0.13 0.1623,0.195 0.0412,0.065 0.0691,0.13 0.083,0.195 0.014,0.064 0.014,0.129 0,0.194 -0.0139,0.065 -0.0418,0.13 -0.083,0.195 -0.0412,0.065 -0.0957,0.129 -0.1623,0.194 -0.0665,0.065 -0.145,0.13 -0.2338,0.195 -0.0888,0.065 -0.1879,0.13 -0.295,0.195 -0.1072,0.064 -0.2224,0.129 -0.3433,0.194 -0.121,0.065 -0.2476,0.13 -0.3776,0.195 -0.1299,0.065 -0.2631,0.129 -0.3972,0.194 -0.1341,0.065 -0.2692,0.13 -0.4031,0.195 -0.1338,0.065 -0.2665,0.13 -0.3961,0.195 -0.1297,0.064 -0.2564,0.129 -0.3786,0.194 -0.1223,0.065 -0.2401,0.13 -0.3525,0.195 -0.1124,0.065 -0.2194,0.129 -0.3204,0.194 -0.1009,0.065 -0.1959,0.13 -0.2846,0.195 -0.0887,0.065 -0.1711,0.13 -0.2473,0.195 -0.0763,0.064 -0.1463,0.129 -0.2106,0.194 -0.0642,0.065 -0.1225,0.13 -0.1755,0.195 -0.053,0.065 -0.1007,0.129 -0.1436,0.194 -0.0429,0.065 -0.0811,0.13 -0.1151,0.195 -0.0341,0.065 -0.0641,0.13 -0.0906,0.195 -0.0266,0.064 -0.0497,0.129 -0.07,0.194 -0.0203,0.065 -0.0378,0.13 -0.0531,0.195 -0.0152,0.065 -0.0282,0.129 -0.0395,0.194 -0.0112,0.065 -0.0207,0.13 -0.0289,0.195 -0.008,0.065 -0.0149,0.13 -0.0207,0.195 -0.006,0.064 -0.0106,0.129 -0.0147,0.194 -0.004,0.065 -0.007,0.13 -0.0102,0.195 -0.003,0.065 -0.005,0.129 -0.007,0.194 -0.002,0.065 -0.003,0.13 -0.005,0.195 l -0.003,0.195 c -8e-4,0.064 -10e-4,0.129 -0.002,0.194 -5e-4,0.065 -9e-4,0.13 -0.001,0.195 -3e-4,0.065 -6e-4,0.129 -8e-4,0.194"
       title="t (1/sqrt(2*pi)) * exp(-pow(t,2)/2)"
       id="path5621"
       sodipodi:nodetypes="ccccscscccccccccsccccscccccccccsccscscccscccscsccssccsccccccsccccc"
       inkscape:export-filename="D:\School\Libraries\Opstelling_Huidtherapie\data\Figuren\stralengang_nietgecollimeerd.png"
       inkscape:export-xdpi="400"
       inkscape:export-ydpi="400" />
    <text
       xml:space="preserve"
       style="font-style:normal;font-weight:normal;font-size:2.11667px;line-height:1.25;font-family:sans-serif;fill:#000000;fill-opacity:1;stroke:none;stroke-width:0.264583"
       x="49.128056"
       y="121.94444"
       id="text6896"
       inkscape:export-filename="D:\School\Libraries\Opstelling_Huidtherapie\data\Figuren\stralengang_nietgecollimeerd.png"
       inkscape:export-xdpi="400"
       inkscape:export-ydpi="400"><tspan
         sodipodi:role="line"
         id="tspan6894"
         style="font-size:2.11667px;stroke-width:0.264583"
         x="49.128056"
         y="121.94444">a)</tspan></text>
    <text
       xml:space="preserve"
       style="font-style:normal;font-weight:normal;font-size:1.99103px;line-height:1.25;font-family:sans-serif;fill:#000000;fill-opacity:1;stroke:none;stroke-width:0.248878"
       x="51.553028"
       y="140.35837"
       id="text6896-8"
       transform="scale(0.94064085,1.063105)"
       inkscape:export-filename="D:\School\Libraries\Opstelling_Huidtherapie\data\Figuren\stralengang_nietgecollimeerd.png"
       inkscape:export-xdpi="400"
       inkscape:export-ydpi="400"><tspan
         sodipodi:role="line"
         id="tspan6894-6"
         style="font-size:1.99103px;stroke-width:0.248878"
         x="51.553028"
         y="140.35837">b)</tspan></text>
    <path
       style="fill:none;stroke:#000000;stroke-width:0.264583px;stroke-linecap:butt;stroke-linejoin:miter;stroke-opacity:1"
       d="M 54.239583,124.35417 H 92.604166"
       id="path10181"
       inkscape:path-effect="#path-effect10183"
       inkscape:original-d="m 54.239583,124.35417 c 12.788458,2.6e-4 25.576654,2.6e-4 38.364583,0"
       inkscape:export-filename="D:\School\Libraries\Opstelling_Huidtherapie\data\Figuren\stralengang_nietgecollimeerd.png"
       inkscape:export-xdpi="400"
       inkscape:export-ydpi="400" />
    <path
       style="fill:none;stroke:#000000;stroke-width:0.264583px;stroke-linecap:butt;stroke-linejoin:miter;stroke-opacity:1"
       d="m 92.604166,123.03125 v 2.64583"
       id="path10298"
       inkscape:path-effect="#path-effect10300"
       inkscape:original-d="m 92.604166,123.03125 c 2.64e-4,0.88221 2.64e-4,1.76415 0,2.64583"
       inkscape:export-filename="D:\School\Libraries\Opstelling_Huidtherapie\data\Figuren\stralengang_nietgecollimeerd.png"
       inkscape:export-xdpi="400"
       inkscape:export-ydpi="400" />
    <path
       style="fill:none;stroke:#000000;stroke-width:0.264583px;stroke-linecap:butt;stroke-linejoin:miter;stroke-opacity:1"
       d="m 54.239583,123.03125 v 2.64583"
       id="path10302"
       inkscape:path-effect="#path-effect10304"
       inkscape:original-d="m 54.239583,123.03125 c 2.64e-4,0.88221 2.64e-4,1.76415 0,2.64583"
       inkscape:export-filename="D:\School\Libraries\Opstelling_Huidtherapie\data\Figuren\stralengang_nietgecollimeerd.png"
       inkscape:export-xdpi="400"
       inkscape:export-ydpi="400" />
    <path
       style="fill:none;stroke:#000000;stroke-width:0.264583px;stroke-linecap:butt;stroke-linejoin:miter;stroke-opacity:1"
       d="M 92.604166,128.32292 H 107.15625"
       id="path10419"
       inkscape:path-effect="#path-effect10421"
       inkscape:original-d="m 92.604166,128.32292 c 4.850958,2.6e-4 9.701654,2.6e-4 14.552084,0"
       inkscape:export-filename="D:\School\Libraries\Opstelling_Huidtherapie\data\Figuren\stralengang_nietgecollimeerd.png"
       inkscape:export-xdpi="400"
       inkscape:export-ydpi="400" />
    <path
       style="fill:none;stroke:#000000;stroke-width:0.264583px;stroke-linecap:butt;stroke-linejoin:miter;stroke-opacity:1"
       d="m 92.604166,127 v 2.64583"
       id="path10423"
       inkscape:path-effect="#path-effect10425"
       inkscape:original-d="m 92.604166,127 c 2.64e-4,0.88221 2.64e-4,1.76415 0,2.64583"
       inkscape:export-filename="D:\School\Libraries\Opstelling_Huidtherapie\data\Figuren\stralengang_nietgecollimeerd.png"
       inkscape:export-xdpi="400"
       inkscape:export-ydpi="400" />
    <path
       style="fill:none;stroke:#000000;stroke-width:0.264583px;stroke-linecap:butt;stroke-linejoin:miter;stroke-opacity:1"
       d="m 107.15625,127 v 2.64583"
       id="path10427"
       inkscape:path-effect="#path-effect10429"
       inkscape:original-d="m 107.15625,127 c 2.6e-4,0.88221 2.6e-4,1.76415 0,2.64583"
       inkscape:export-filename="D:\School\Libraries\Opstelling_Huidtherapie\data\Figuren\stralengang_nietgecollimeerd.png"
       inkscape:export-xdpi="400"
       inkscape:export-ydpi="400" />
    <g
       inkscape:label=""
       transform="matrix(0.25,0,0,0.25,71.390061,105.97105)"
       id="g10646"
       inkscape:export-filename="D:\School\Libraries\Opstelling_Huidtherapie\data\Figuren\stralengang_nietgecollimeerd.png"
       inkscape:export-xdpi="400"
       inkscape:export-ydpi="400">
      <g
         id="g9254">
        <g
           style="fill:#000000;fill-opacity:1"
           id="g5674">
          <use
             xlink:href="#symbol217"
             x="91.925003"
             y="81.962997"
             id="use2990"
             width="100%"
             height="100%" />
        </g>
        <g
           style="fill:#000000;fill-opacity:1"
           id="g3691">
          <use
             xlink:href="#symbol6161"
             x="100.643"
             y="81.962997"
             id="use2902"
             width="100%"
             height="100%" />
        </g>
        <g
           style="fill:#000000;fill-opacity:1"
           id="g5881">
          <use
             xlink:href="#symbol6460"
             x="111.16151"
             y="81.962997"
             id="use928"
             width="100%"
             height="100%" />
          <use
             xlink:href="#symbol7410"
             x="116.14281"
             y="81.962997"
             id="use6510"
             width="100%"
             height="100%" />
          <use
             xlink:href="#symbol9412"
             x="121.12411"
             y="81.962997"
             id="use2294"
             width="100%"
             height="100%" />
          <use
             xlink:href="#symbol9412"
             x="129.42595"
             y="81.962997"
             id="use7687"
             width="100%"
             height="100%" />
        </g>
      </g>
    </g>
    <g
       inkscape:label=""
       transform="matrix(0.25,0,0,0.25,38.447432,106.43575)"
       id="g10885"
       inkscape:export-filename="D:\School\Libraries\Opstelling_Huidtherapie\data\Figuren\stralengang_nietgecollimeerd.png"
       inkscape:export-xdpi="400"
       inkscape:export-ydpi="400">
      <g
         id="g4359">
        <g
           style="fill:#000000;fill-opacity:1"
           id="g8740">
          <use
             xlink:href="#symbol8348"
             x="91.925003"
             y="81.962997"
             id="use7736"
             width="100%"
             height="100%" />
        </g>
        <g
           style="fill:#000000;fill-opacity:1"
           id="g5079">
          <use
             xlink:href="#symbol551"
             x="99.362999"
             y="81.962997"
             id="use5459"
             width="100%"
             height="100%" />
        </g>
        <g
           style="fill:#000000;fill-opacity:1"
           id="g9168">
          <use
             xlink:href="#symbol904"
             x="109.88152"
             y="81.962997"
             id="use2465"
             width="100%"
             height="100%" />
          <use
             xlink:href="#symbol4804"
             x="114.86282"
             y="81.962997"
             id="use6686"
             width="100%"
             height="100%" />
          <use
             xlink:href="#symbol2057"
             x="119.84412"
             y="81.962997"
             id="use171"
             width="100%"
             height="100%" />
          <use
             xlink:href="#symbol3232"
             x="124.82542"
             y="81.962997"
             id="use1989"
             width="100%"
             height="100%" />
          <use
             xlink:href="#symbol3232"
             x="133.12724"
             y="81.962997"
             id="use3394"
             width="100%"
             height="100%" />
        </g>
      </g>
    </g>
  </g>
</svg>
